<?xml version="1.0" encoding="utf-8"?>
<!-- Generator: Adobe Illustrator 22.1.0, SVG Export Plug-In . SVG Version: 6.00 Build 0)  -->
<svg version="1.1" id="Layer_1" xmlns="http://www.w3.org/2000/svg" xmlns:xlink="http://www.w3.org/1999/xlink" x="0px" y="0px"
	 viewBox="0 0 274.8 435" style="enable-background:new 0 0 274.8 435;" xml:space="preserve">
<style type="text/css">
	.st0{fill:#FFFFFF;}
	.st1{font-family:'MyriadPro-Regular';}
	.st2{font-size:15.8353px;}
	.st3{fill:none;stroke:#000000;stroke-miterlimit:10;}
	.st4{stroke:#000000;stroke-miterlimit:10;}
</style>
<g>
	<g>
		<path class="st0" d="M114,97.5c-6.3,0-11.5-5.2-11.5-11.5V12c0-6.3,5.2-11.5,11.5-11.5h46.8c6.3,0,11.5,5.2,11.5,11.5v74
			c0,6.3-5.2,11.5-11.5,11.5H114z"/>
		<path d="M160.8,1c6.1,0,11,4.9,11,11v74c0,6.1-4.9,11-11,11H114c-6.1,0-11-4.9-11-11V12c0-6.1,4.9-11,11-11H160.8 M160.8,0H114
			c-6.6,0-12,5.4-12,12v74c0,6.6,5.4,12,12,12h46.8c6.6,0,12-5.4,12-12V12C172.8,5.4,167.4,0,160.8,0L160.8,0z"/>
	</g>
	<text transform="matrix(1 0 0 1 121.6732 37.5684)"><tspan x="0" y="0" class="st1 st2">News </tspan><tspan x="-5.2" y="19" class="st1 st2">release</tspan></text>
</g>
<g>
	<path class="st0" d="M112.6,272.5c-6.3,0-11.5-5.2-11.5-11.5v-79c0-6.3,5.2-11.5,11.5-11.5H163c6.3,0,11.5,5.2,11.5,11.5v79
		c0,6.3-5.2,11.5-11.5,11.5H112.6z"/>
	<path d="M163,171c6.1,0,11,4.9,11,11v79c0,6.1-4.9,11-11,11h-50.4c-6.1,0-11-4.9-11-11v-79c0-6.1,4.9-11,11-11H163 M163,170h-50.4
		c-6.6,0-12,5.4-12,12v79c0,6.6,5.4,12,12,12H163c6.6,0,12-5.4,12-12v-79C175,175.4,169.6,170,163,170L163,170z"/>
</g>
<text transform="matrix(1 0 0 1 117.995 210.5684)"><tspan x="0" y="0" class="st1 st2">News  </tspan><tspan x="-10.2" y="19" class="st1 st2">template</tspan></text>
<path class="st3" d="M124.8,160"/>
<line class="st3" x1="137.3" y1="159.5" x2="137.3" y2="113.5"/>
<path class="st3" d="M154.3,159.5"/>
<line class="st3" x1="139.3" y1="282" x2="139.3" y2="312"/>
<g>
	<path class="st0" d="M108.6,416.5c-6.3,0-11.5-5.2-11.5-11.5v-70c0-6.3,5.2-11.5,11.5-11.5h56.9c6.3,0,11.5,5.2,11.5,11.5v70
		c0,6.3-5.2,11.5-11.5,11.5H108.6z"/>
	<path d="M165.5,324c6.1,0,11,4.9,11,11v70c0,6.1-4.9,11-11,11h-56.9c-6.1,0-11-4.9-11-11v-70c0-6.1,4.9-11,11-11H165.5 M165.5,323
		h-56.9c-6.6,0-12,5.4-12,12v70c0,6.6,5.4,12,12,12h56.9c6.6,0,12-5.4,12-12v-70C177.5,328.4,172.1,323,165.5,323L165.5,323z"/>
</g>
<text transform="matrix(1 0 0 1 120.8891 363.5684)"><tspan x="0" y="0" class="st1 st2">Web </tspan><tspan x="-1.3" y="19" class="st1 st2">Page</tspan></text>
<g>
	<g>
		<path class="st0" d="M12,97.5C5.7,97.5,0.5,92.3,0.5,86V12C0.5,5.7,5.7,0.5,12,0.5h46.8c6.3,0,11.5,5.2,11.5,11.5v74
			c0,6.3-5.2,11.5-11.5,11.5H12z"/>
		<path d="M58.8,1c6.1,0,11,4.9,11,11v74c0,6.1-4.9,11-11,11H12C5.9,97,1,92.1,1,86V12C1,5.9,5.9,1,12,1H58.8 M58.8,0H12
			C5.4,0,0,5.4,0,12v74c0,6.6,5.4,12,12,12h46.8c6.6,0,12-5.4,12-12V12C70.8,5.4,65.4,0,58.8,0L58.8,0z"/>
	</g>
	<text transform="matrix(1 0 0 1 19.6732 37.5684)"><tspan x="0" y="0" class="st1 st2">News </tspan><tspan x="-5.2" y="19" class="st1 st2">release</tspan></text>
</g>
<g>
	<g>
		<path class="st0" d="M216,97.5c-6.3,0-11.5-5.2-11.5-11.5V12c0-6.3,5.2-11.5,11.5-11.5h46.8c6.3,0,11.5,5.2,11.5,11.5v74
			c0,6.3-5.2,11.5-11.5,11.5H216z"/>
		<path d="M262.8,1c6.1,0,11,4.9,11,11v74c0,6.1-4.9,11-11,11H216c-6.1,0-11-4.9-11-11V12c0-6.1,4.9-11,11-11H262.8 M262.8,0H216
			c-6.6,0-12,5.4-12,12v74c0,6.6,5.4,12,12,12h46.8c6.6,0,12-5.4,12-12V12C274.8,5.4,269.4,0,262.8,0L262.8,0z"/>
	</g>
	<text transform="matrix(1 0 0 1 223.6732 37.5684)"><tspan x="0" y="0" class="st1 st2">News </tspan><tspan x="-5.2" y="19" class="st1 st2">release</tspan></text>
</g>
<line class="st3" x1="239.8" y1="113" x2="136.8" y2="159"/>
<line class="st4" x1="35.8" y1="109" x2="136.8" y2="159"/>
</svg>
