<?xml version="1.0" encoding="utf-8"?>
<!-- Generator: Adobe Illustrator 22.1.0, SVG Export Plug-In . SVG Version: 6.00 Build 0)  -->
<svg version="1.1" id="Layer_1" xmlns="http://www.w3.org/2000/svg" xmlns:xlink="http://www.w3.org/1999/xlink" x="0px" y="0px"
	 viewBox="0 0 689 481.5" style="enable-background:new 0 0 689 481.5;" xml:space="preserve">
<style type="text/css">
	.st0{fill:#FFFFFF;}
	.st1{font-family:'Merriweather-Regular';}
	.st2{font-size:30.5728px;}
	.st3{font-size:18px;}
</style>
<g>
	<path class="st0" d="M234.5,46.5C363.3,46.5,468,144.1,468,264c0,29.3-6.2,57.7-18.3,84.4c-11.8,25.8-28.6,48.9-50,68.8
		c-21.4,19.9-46.4,35.5-74.2,46.3c-28.8,11.3-59.4,17-90.9,17c-31.5,0-62.1-5.7-90.9-17.1c-27.8-10.9-52.8-26.6-74.2-46.5
		c-21.4-19.9-38.3-43.1-50-69C7.2,321.2,1,292.8,1,263.5s6.2-57.7,18.3-84.4c11.8-25.8,28.6-49,50-69c21.4-19.9,46.4-35.6,74.2-46.5
		C172.4,52.2,203,46.5,234.5,46.5 M234.5,45.5C105,45.5,0,143.1,0,263.5s105,218,234.5,218S469,384.4,469,264S364,45.5,234.5,45.5
		L234.5,45.5z"/>
</g>
<g>
	<path class="st0" d="M471,46.5c29.3,0,57.7,5.7,84.5,17.1c25.8,10.9,49,26.6,69,46.5c19.9,19.9,35.6,43.1,46.5,69
		c11.3,26.8,17.1,55.2,17.1,84.5s-5.7,57.7-17.1,84.5c-10.9,25.8-26.6,49-46.5,69c-19.9,19.9-43.1,35.6-69,46.5
		c-26.8,11.3-55.2,17.1-84.5,17.1s-57.7-5.7-84.5-17.1c-25.8-10.9-49-26.6-69-46.5s-35.6-43.1-46.5-69
		c-11.3-26.8-17.1-55.2-17.1-84.5s5.7-57.7,17.1-84.5c10.9-25.8,26.6-49,46.5-69s43.1-35.6,69-46.5C413.3,52.2,441.7,46.5,471,46.5
		 M471,45.5c-120.4,0-218,97.6-218,218s97.6,218,218,218s218-97.6,218-218S591.4,45.5,471,45.5L471,45.5z"/>
</g>
<text transform="matrix(1 0 0 1 124.3086 26.6465)" class="st0 st1 st2">Accessibility</text>
<text transform="matrix(1 0 0 1 453.3086 26.6465)" class="st0 st1 st2">SEO</text>
<text transform="matrix(1 0 0 1 316.3838 140.4727)"><tspan x="0" y="0" class="st0 st1 st3">Semantic </tspan><tspan x="13.2" y="21.6" class="st0 st1 st3">HTML</tspan></text>
<text transform="matrix(1 0 0 1 469.9961 103.4727)"><tspan x="0" y="0" class="st0 st1 st3">URLs that  </tspan><tspan x="-16.7" y="21.6" class="st0 st1 st3">communicate  </tspan><tspan x="-11.3" y="43.2" class="st0 st1 st3">their conten</tspan><tspan x="98.7" y="43.2" class="st0 st1 st3">t</tspan></text>
<text transform="matrix(1 0 0 1 287 191.4727)" class="st0 st1 st3">Use of Headings</text>
<text transform="matrix(1 0 0 1 31 238.4727)" class="st0 st1 st3">Navigable by Keyboard</text>
<text transform="matrix(1 0 0 1 48 188.4727)" class="st0 st1 st3">Skip to Content Link</text>
<text transform="matrix(1 0 0 1 149 98.4727)" class="st0 st1 st3">Focus states</text>
<text transform="matrix(1 0 0 1 72 143.4727)" class="st0 st1 st3">Focus management</text>
<text transform="matrix(1 0 0 1 43 289.4727)" class="st0 st1 st3">Image alt text</text>
<text transform="matrix(1 0 0 1 79 379.4727)" class="st0 st1 st3">Closed captions</text>
<text transform="matrix(1 0 0 1 55 332.4727)" class="st0 st1 st3">Color contrast</text>
<text transform="matrix(1 0 0 1 138 428.4727)" class="st0 st1 st3">Legible text</text>
<text transform="matrix(1 0 0 1 308 403.4727)" class="st0 st1 st3">Transcripts</text>
<text transform="matrix(1 0 0 1 525 281.4727)" class="st0 st1 st3">Sitemap</text>
<text transform="matrix(1 0 0 1 494 195.4727)" class="st0 st1 st3">Descriptive title</text>
<text transform="matrix(1 0 0 1 514 239.4727)" class="st0 st1 st3">Description text</text>
<text transform="matrix(1 0 0 1 283 233.4727)" class="st0 st1 st3">Button/Link text</text>
<text transform="matrix(1 0 0 1 302 267.4727)" class="st0 st1 st3">Performance</text>
<text transform="matrix(1 0 0 1 304.2222 342.4727)"><tspan x="0" y="0" class="st0 st1 st3">Progressive  </tspan><tspan x="-7.1" y="21.6" class="st0 st1 st3">Enhancemen</tspan><tspan x="109.7" y="21.6" class="st0 st1 st3">t</tspan></text>
<text transform="matrix(1 0 0 1 290.1118 305.4727)" class="st0 st1 st3">Mobile Friendly</text>
</svg>
